Simulation
nRows=19
nColumns=15
endheader
time  TH_x TH_y TH_z SC_y  SC_z  SC_x  AC_y  AC_z  AC_x  GH_y  GH_z  GH_yy  EL_x  PS_y
0.0  0.000000  0.000000  0.000000  -22.259825084248543  4.860104698490428  -7.034128448150378  63.621114074502614  7.42503241950461  12.940660613186493  -98.56403435889216  7.546438527425434  129.08727659678755  20.169675327950547  120.000000
0.04016479400749064  0.000000  0.000000  0.000000  -22.271289093683546  4.868424819791206  -7.015686801774819  63.585828240659914  7.473058038676093  12.903918042562168  -97.4283055696696  7.55087526844854  127.85693188163975  20.082057845088062  120.000000
0.08032958801498127  0.000000  0.000000  0.000000  -22.30669008807692  4.891146060041133  -6.963386006778343  63.47497194852  7.611821620130797  12.794239328175516  -94.06920111133606  7.584888403235228  124.20737633858964  19.829497429214765  120.000000
0.12049438202247191  0.000000  0.000000  0.000000  -22.371863107522913  4.9261989415875345  -6.889179292220147  63.28145532363813  7.824524845280554  12.614914646651327  -88.72223372130422  7.702992212968014  118.36325365242881  19.439903752426847  120.000000
0.16065917602996255  0.000000  0.000000  0.000000  -22.477539245197324  4.970180600966405  -6.809563968478692  63.00055385246467  8.088742455828806  12.372567704031633  -81.90238618556607  7.978499007026323  110.83502499679356  18.94582158147598  120.000000
0.20082397003745317  0.000000  0.000000  0.000000  -22.63795581725166  5.019169189095178  -6.736826657183129  62.63224281700575  8.386094016494189  12.076059099065567  -74.34609022208221  8.478026413527212  102.36216910106735  18.376072833948353  120.000000
0.24098876404494382  0.000000  0.000000  0.000000  -22.86900829100694  5.073776958975883  -6.675222344933174  62.18139823653626  8.70572056747192  11.737495165376046  -66.8265101654947  9.241767229844074  93.72895194330988  17.756454179059556  120.000000
0.28115355805243447  0.000000  0.000000  0.000000  -23.185314319384172  5.139207917604052  -6.620117840518113  61.65781556009011  9.04626528245471  11.369045770542975  -59.92763067961059  10.279681800434457  85.5371800912879  17.107406871678958  120.000000
0.3213183520599251  0.000000  0.000000  0.000000  -23.59728073817258  5.226869167239061  -6.560373374407445  61.07678069590892  9.414248940614108  10.98144467598778  -53.94350821374808  11.578506711841612  78.10328858958607  16.445465844129497  120.000000
0.3614831460674157  0.000000  0.000000  0.000000  -24.107850263846498  5.348772323541725  -6.48190618812147  60.454009107970556  9.818532102152759  10.5873329328623  -48.95204438303407  13.113074117243679  71.53233418938296  15.784167263466756  120.000000
0.40164794007490634  0.000000  0.000000  0.000000  -24.71315988166306  5.511631226262091  -6.37074418510768  59.80383346671405  10.26563198791006  10.201393344718575  -44.90787668447872  14.850637157199353  65.8090005342439  15.134372864628247  120.000000
0.441812734082397  0.000000  0.000000  0.000000  -25.403277330339474  5.7185326952366635  -6.212983194237421  59.138762485651746  10.759160380578116  9.839269770481492  -41.706808898226605  16.75462612998862  60.860698136580005  14.505520214984658  120.000000
0.48197752808988764  0.000000  0.000000  0.000000  -26.162906134970275  5.97246574610574  -5.9956242668615625  58.472973184512874  11.301007425223524  9.51393397444361  -39.2205334333494  18.78791146189307  56.59157958600679  13.905116099697961  120.000000
0.5221423220973783  0.000000  0.000000  0.000000  -26.974111991987037  6.27557150133884  -5.707375280489249  57.821124004780565  11.890892875996382  9.235440193919212  -37.32219320215862  20.915501486884043  52.90698022080322  13.338741563321452  120.000000
0.5623071161048689  0.000000  0.000000  0.000000  -27.818939894552763  6.62615541044557  -5.33820124271932  57.19579760361727  12.525850233624444  9.012981708730896  -35.89975299425853  23.105700124757934  49.72566121990063  12.809268101622916  120.000000
0.6024719101123596  0.000000  0.000000  0.000000  -28.68035039523607  7.0190504026587055  -4.87966809351502  56.608010256262155  13.199536337058301  8.854371493499318  -34.854671790449345  25.329982885893557  46.97733997900429  12.317324628122167  120.000000
0.6426367041198502  0.000000  0.000000  0.000000  -29.543258939304174  7.446649997139634  -4.325494174182129  56.06735017034872  13.902188763459643  8.765573958700378  -34.101440280746395  27.563127868635597  44.601154482199064  11.86148785343366  120.000000
0.6828014981273408  0.000000  0.000000  0.000000  -30.395365428426434  7.89909667398544  -3.67171293024457  55.58201224672971  14.621545274436036  8.750113362039375  -33.56597390689308  29.783137123941838  42.5426974009112  11.43803505707639  120.000000
0.7229662921348314  0.000000  0.000000  0.000000  -31.227424337179396  8.365510875651317  -2.9165667803272632  55.15897338841288  15.343938324963553  8.808962042920514  -33.184664220894184  31.971554155873804  40.75248884077615  11.04110504341594  120.000000
